<svg xmlns="http://www.w3.org/2000/svg" width="980" height="660" viewBox="0 0 980 660" font-family="Courier New, Courier, monospace">
<defs><marker id="arr-gold" viewBox="0 0 10 10" refX="9" refY="5" markerWidth="7" markerHeight="7" orient="auto-start-reverse">
     <path d="M0,0 L10,5 L0,10 z" fill="#c39a56"/></marker>
<marker id="arr-dim" viewBox="0 0 10 10" refX="9" refY="5" markerWidth="7" markerHeight="7" orient="auto-start-reverse">
     <path d="M0,0 L10,5 L0,10 z" fill="#6b5530"/></marker>
<marker id="arr-red" viewBox="0 0 10 10" refX="9" refY="5" markerWidth="7" markerHeight="7" orient="auto-start-reverse">
     <path d="M0,0 L10,5 L0,10 z" fill="#d64532"/></marker>
<marker id="arr-green" viewBox="0 0 10 10" refX="9" refY="5" markerWidth="7" markerHeight="7" orient="auto-start-reverse">
     <path d="M0,0 L10,5 L0,10 z" fill="#9fd08a"/></marker>
<marker id="arr-cream" viewBox="0 0 10 10" refX="9" refY="5" markerWidth="7" markerHeight="7" orient="auto-start-reverse">
     <path d="M0,0 L10,5 L0,10 z" fill="#f4efe4"/></marker></defs>
<rect width="100%" height="100%" fill="#0d0a07"/>
<rect x="60" y="545" width="830" height="60" fill="#171106" stroke="#c39a56" stroke-width="1.2"  rx="2"/><text x="76" y="570" font-size="13" fill="#f4efe4" text-anchor="start" letter-spacing="2" >LAYER 0 — NOSTR</text><text x="76" y="592" font-size="12" fill="#c39a56" text-anchor="start" letter-spacing="0" >keypair identity · dumb, replaceable relays · signed self-authenticating events</text><rect x="60" y="445" width="830" height="70" fill="#171106" stroke="#c39a56" stroke-width="1.2"  rx="2"/><text x="76" y="470" font-size="13" fill="#f4efe4" text-anchor="start" letter-spacing="2" >LAYER 1 — NIP-DA · SCOPED DATA GRANTS</text><text x="76" y="492" font-size="12" fill="#c39a56" text-anchor="start" letter-spacing="0" >30440 scope (encrypted, addressable) · 440 grant in a 1059 wrap · 10440 self-encrypted index</text>
<text x="76" y="509" font-size="12" fill="#c39a56" text-anchor="start" letter-spacing="0" >rotation = update AND revocation · the signer interface (NIP-07-shaped)</text><rect x="60" y="310" width="830" height="105" fill="#171106" stroke="#c39a56" stroke-width="1.2"  rx="2"/><text x="76" y="335" font-size="13" fill="#f4efe4" text-anchor="start" letter-spacing="2" >LAYER 2 — THE N-FAMILY</text><rect x="76" y="350" width="122" height="46" fill="#1d1508" stroke="#c39a56" stroke-width="1.2"  rx="2"/><text x="137" y="370" font-size="11" fill="#f4efe4" text-anchor="middle" letter-spacing="1" >NONTACT</text><text x="137" y="387" font-size="9.5" fill="#6b5530" text-anchor="middle" letter-spacing="0" >emergent views</text><rect x="210" y="350" width="122" height="46" fill="#1d1508" stroke="#c39a56" stroke-width="1.2"  rx="2"/><text x="271" y="370" font-size="11" fill="#f4efe4" text-anchor="middle" letter-spacing="1" >NVELOPE</text><text x="271" y="387" font-size="9.5" fill="#6b5530" text-anchor="middle" letter-spacing="0" >blob scale</text><rect x="344" y="350" width="122" height="46" fill="#1d1508" stroke="#c39a56" stroke-width="1.2"  rx="2"/><text x="405" y="370" font-size="11" fill="#f4efe4" text-anchor="middle" letter-spacing="1" >NVOY</text><text x="405" y="387" font-size="9.5" fill="#6b5530" text-anchor="middle" letter-spacing="0" >delegation</text><rect x="478" y="350" width="122" height="46" fill="#1d1508" stroke="#c39a56" stroke-width="1.2"  rx="2"/><text x="539" y="370" font-size="11" fill="#f4efe4" text-anchor="middle" letter-spacing="1" >NHERIT</text><text x="539" y="387" font-size="9.5" fill="#6b5530" text-anchor="middle" letter-spacing="0" >shipped</text><rect x="612" y="350" width="122" height="46" fill="#1d1508" stroke="#c39a56" stroke-width="1.2"  rx="2"/><text x="673" y="370" font-size="11" fill="#f4efe4" text-anchor="middle" letter-spacing="1" >NTRIGUE</text><text x="673" y="387" font-size="9.5" fill="#6b5530" text-anchor="middle" letter-spacing="0" >shipped</text><rect x="746" y="350" width="122" height="46" fill="#1d1508" stroke="#c39a56" stroke-width="1.2"  rx="2"/><text x="807" y="370" font-size="11" fill="#f4efe4" text-anchor="middle" letter-spacing="1" >NOTEGATE</text><text x="807" y="387" font-size="9.5" fill="#6b5530" text-anchor="middle" letter-spacing="0" >shipped</text><rect x="60" y="80" width="830" height="195" fill="#171106" stroke="#c39a56" stroke-width="1.6"  rx="2"/><text x="76" y="108" font-size="13" fill="#f4efe4" text-anchor="start" letter-spacing="2" font-weight="bold">LAYER 3 — NOIR · THE SPEAKEASY</text><text x="76" y="128" font-size="11" fill="#6b5530" text-anchor="start" letter-spacing="0" >the game about scoped data grants, operated through scoped data grants</text><rect x="76" y="142" width="254" height="116" fill="#1d1508" stroke="#c39a56" stroke-width="1.2"  rx="2"/><text x="203" y="165" font-size="13" fill="#f4efe4" text-anchor="middle" letter-spacing="2" >THE ENGINE</text><text x="203" y="186" font-size="11" fill="#c39a56" text-anchor="middle" letter-spacing="0" >deterministic skeleton</text>
<text x="203" y="202" font-size="11" fill="#c39a56" text-anchor="middle" letter-spacing="0" >scopes · edges · burns</text>
<text x="203" y="218" font-size="11" fill="#c39a56" text-anchor="middle" letter-spacing="0" >heat · accusation</text>
<text x="203" y="234" font-size="11" fill="#c39a56" text-anchor="middle" letter-spacing="0" >commitment</text><rect x="348" y="142" width="254" height="116" fill="#1d1508" stroke="#c39a56" stroke-width="1.2"  rx="2"/><text x="475" y="165" font-size="13" fill="#f4efe4" text-anchor="middle" letter-spacing="2" >THE DIRECTOR</text><text x="475" y="186" font-size="11" fill="#c39a56" text-anchor="middle" letter-spacing="0" >generative voice</text>
<text x="475" y="202" font-size="11" fill="#c39a56" text-anchor="middle" letter-spacing="0" >info-starved: context</text>
<text x="475" y="218" font-size="11" fill="#c39a56" text-anchor="middle" letter-spacing="0" >pack only · fails soft</text>
<text x="475" y="234" font-size="11" fill="#c39a56" text-anchor="middle" letter-spacing="0" >a delegated nvoy agent</text><rect x="620" y="142" width="254" height="116" fill="#1d1508" stroke="#9fd08a" stroke-width="1.2"  rx="2"/><text x="747" y="165" font-size="13" fill="#f4efe4" text-anchor="middle" letter-spacing="2" >THE NOTARY</text><text x="747" y="186" font-size="11" fill="#c39a56" text-anchor="middle" letter-spacing="0" >the verifier</text>
<text x="747" y="202" font-size="11" fill="#c39a56" text-anchor="middle" letter-spacing="0" >structure · fairness</text>
<text x="747" y="218" font-size="11" fill="#c39a56" text-anchor="middle" letter-spacing="0" >replay-to-epilogue</text>
<text x="747" y="234" font-size="11" fill="#c39a56" text-anchor="middle" letter-spacing="0" >commitment integrity</text><line x1="530" y1="545" x2="530" y2="515" stroke="#6b5530" stroke-width="1.4"  marker-end="url(#arr-dim)"/><line x1="530" y1="445" x2="530" y2="415" stroke="#6b5530" stroke-width="1.4"  marker-end="url(#arr-dim)"/><line x1="530" y1="310" x2="530" y2="275" stroke="#6b5530" stroke-width="1.4"  marker-end="url(#arr-dim)"/><text x="935" y="330" font-size="13" fill="#c39a56" letter-spacing="4" transform="rotate(-90 935 330)" text-anchor="middle">physics by commitment · flesh by language</text><text x="24" y="642" font-size="11" fill="#6b5530" text-anchor="start" letter-spacing="2" >FIG. 1 — THE LAYER CAKE</text>
</svg>