<svg xmlns="http://www.w3.org/2000/svg" width="980" height="660" viewBox="0 0 980 660" font-family="Courier New, Courier, monospace">
<defs><marker id="arr-gold" viewBox="0 0 10 10" refX="9" refY="5" markerWidth="7" markerHeight="7" orient="auto-start-reverse">
     <path d="M0,0 L10,5 L0,10 z" fill="#c39a56"/></marker>
<marker id="arr-dim" viewBox="0 0 10 10" refX="9" refY="5" markerWidth="7" markerHeight="7" orient="auto-start-reverse">
     <path d="M0,0 L10,5 L0,10 z" fill="#6b5530"/></marker>
<marker id="arr-red" viewBox="0 0 10 10" refX="9" refY="5" markerWidth="7" markerHeight="7" orient="auto-start-reverse">
     <path d="M0,0 L10,5 L0,10 z" fill="#d64532"/></marker>
<marker id="arr-green" viewBox="0 0 10 10" refX="9" refY="5" markerWidth="7" markerHeight="7" orient="auto-start-reverse">
     <path d="M0,0 L10,5 L0,10 z" fill="#9fd08a"/></marker>
<marker id="arr-cream" viewBox="0 0 10 10" refX="9" refY="5" markerWidth="7" markerHeight="7" orient="auto-start-reverse">
     <path d="M0,0 L10,5 L0,10 z" fill="#f4efe4"/></marker></defs>
<rect width="100%" height="100%" fill="#0d0a07"/>
<rect x="305" y="81" width="190" height="68" fill="#1d1508" stroke="#c39a56" stroke-width="1.2"  rx="2"/><text x="400" y="103" font-size="11" fill="#f4efe4" text-anchor="middle" letter-spacing="1" >PLAY</text><text x="400" y="121" font-size="9.5" fill="#c39a56" text-anchor="middle" letter-spacing="0" >the case as dealt</text><path d="M 468.29275575686336 119.81650989877107 A 221 221 0 0 1 547.8778640053076 165.76499356949589" fill="none" stroke="#c39a56" stroke-width="1.4" marker-end="url(#arr-gold)"/><rect x="491.19546181365433" y="188.5" width="190" height="68" fill="#1d1508" stroke="#c39a56" stroke-width="1.2"  rx="2"/><text x="586.1954618136543" y="210.5" font-size="11" fill="#f4efe4" text-anchor="middle" letter-spacing="1" >PIN NOTES</text><text x="586.1954618136543" y="228.5" font-size="9.5" fill="#c39a56" text-anchor="middle" letter-spacing="0" >margin notes anchor</text>
<text x="586.1954618136543" y="241.5" font-size="9.5" fill="#c39a56" text-anchor="middle" letter-spacing="0" >to the text on screen</text><path d="M 616.1706197621711 284.05151632927516 A 221 221 0 0 1 616.1706197621711 375.94848367072484" fill="none" stroke="#c39a56" stroke-width="1.4" marker-end="url(#arr-gold)"/><rect x="491.19546181365433" y="403.5" width="190" height="68" fill="#1d1508" stroke="#c39a56" stroke-width="1.2"  rx="2"/><text x="586.1954618136543" y="425.5" font-size="11" fill="#f4efe4" text-anchor="middle" letter-spacing="1" >SIGN — NIP-07</text><text x="586.1954618136543" y="443.5" font-size="9.5" fill="#c39a56" text-anchor="middle" letter-spacing="0" >the master’s real key</text>
<text x="586.1954618136543" y="456.5" font-size="9.5" fill="#c39a56" text-anchor="middle" letter-spacing="0" >nsec stays in the extension</text><path d="M 547.8778640053076 494.2350064305041 A 221 221 0 0 1 468.29275575686336 540.1834901012289" fill="none" stroke="#c39a56" stroke-width="1.4" marker-end="url(#arr-gold)"/><rect x="305" y="511" width="190" height="68" fill="#1d1508" stroke="#c39a56" stroke-width="1.2"  rx="2"/><text x="400" y="533" font-size="11" fill="#f4efe4" text-anchor="middle" letter-spacing="1" >GRANT TO THE HOUSE</text><text x="400" y="551" font-size="9.5" fill="#c39a56" text-anchor="middle" letter-spacing="0" >house-notes scope 30440</text>
<text x="400" y="564" font-size="9.5" fill="#c39a56" text-anchor="middle" letter-spacing="0" >+ 1059 to the agent npub</text><path d="M 331.70724424313664 540.1834901012289 A 221 221 0 0 1 252.12213599469234 494.2350064305041" fill="none" stroke="#c39a56" stroke-width="1.4" marker-end="url(#arr-gold)"/><rect x="118.80453818634567" y="403.5" width="190" height="68" fill="#1d1508" stroke="#9fd08a" stroke-width="1.2"  rx="2"/><text x="213.80453818634567" y="425.5" font-size="11" fill="#f4efe4" text-anchor="middle" letter-spacing="1" >RESOLVE</text><text x="213.80453818634567" y="443.5" font-size="9.5" fill="#c39a56" text-anchor="middle" letter-spacing="0" >master-only filter:</text>
<text x="213.80453818634567" y="456.5" font-size="9.5" fill="#c39a56" text-anchor="middle" letter-spacing="0" >strangers are ignored</text><path d="M 183.82938023782896 375.94848367072484 A 221 221 0 0 1 183.82938023782896 284.0515163292753" fill="none" stroke="#c39a56" stroke-width="1.4" marker-end="url(#arr-gold)"/><rect x="118.8045381863457" y="188.49999999999997" width="190" height="68" fill="#1d1508" stroke="#c39a56" stroke-width="1.2"  rx="2"/><text x="213.8045381863457" y="210.49999999999997" font-size="11" fill="#f4efe4" text-anchor="middle" letter-spacing="1" >VOICE TIGHTENS</text><text x="213.8045381863457" y="228.49999999999997" font-size="9.5" fill="#c39a56" text-anchor="middle" letter-spacing="0" >notes fold into tuning</text>
<text x="213.8045381863457" y="241.49999999999997" font-size="9.5" fill="#c39a56" text-anchor="middle" letter-spacing="0" >within one poll</text><path d="M 252.1221359946923 165.7649935694959 A 221 221 0 0 1 331.7072442431366 119.81650989877107" fill="none" stroke="#c39a56" stroke-width="1.4" marker-end="url(#arr-gold)"/><text x="400" y="320" font-size="12" fill="#f4efe4" text-anchor="middle" letter-spacing="0" >THE WORKSHOP LOOP</text>
<text x="400" y="338" font-size="12" fill="#f4efe4" text-anchor="middle" letter-spacing="0" >the game is edited</text>
<text x="400" y="356" font-size="12" fill="#f4efe4" text-anchor="middle" letter-spacing="0" >by playing it</text><rect x="730" y="470" width="220" height="96" fill="#171106" stroke="#c39a56" stroke-width="1.2" stroke-dasharray="4 3" rx="2"/><text x="840" y="494" font-size="10" fill="#c39a56" text-anchor="middle" letter-spacing="0" >THE MASTER’S LEDGER</text>
<text x="840" y="509" font-size="10" fill="#c39a56" text-anchor="middle" letter-spacing="0" >kind 10440 + nvoy console</text>
<text x="840" y="524" font-size="10" fill="#c39a56" text-anchor="middle" letter-spacing="0" >list · rotate · revoke</text>
<text x="840" y="539" font-size="10" fill="#c39a56" text-anchor="middle" letter-spacing="0" >every note-grant, later</text><line x1="495" y1="555" x2="730" y2="500" stroke="#6b5530" stroke-width="1.4" stroke-dasharray="4 3" marker-end="url(#arr-dim)"/><text x="24" y="642" font-size="11" fill="#6b5530" text-anchor="start" letter-spacing="2" >FIG. 7 — FEEDBACK AS DELEGATION</text>
</svg>